<?xml version="1.0" encoding="UTF-8" standalone="no"?>
<!-- Uploaded to: SVG Repo, www.svgrepo.com, Generator: SVG Repo Mixer Tools -->

<svg
   version="1.1"
   id="Layer_1"
   viewBox="0 0 108 108"
   xml:space="preserve"
   sodipodi:docname="Amusement Park Icon.svg"
   width="108"
   height="108"
   inkscape:version="1.3.2 (091e20e, 2023-11-25)"
   xmlns:inkscape="http://www.inkscape.org/namespaces/inkscape"
   xmlns:sodipodi="http://sodipodi.sourceforge.net/DTD/sodipodi-0.dtd"
   xmlns="http://www.w3.org/2000/svg"
   xmlns:svg="http://www.w3.org/2000/svg"><defs
   id="defs20" /><sodipodi:namedview
   id="namedview20"
   pagecolor="#ffffff"
   bordercolor="#000000"
   borderopacity="0.25"
   inkscape:showpageshadow="2"
   inkscape:pageopacity="0.0"
   inkscape:pagecheckerboard="0"
   inkscape:deskcolor="#d1d1d1"
   inkscape:zoom="3.3868041"
   inkscape:cx="65.105625"
   inkscape:cy="51.671131"
   inkscape:window-width="1432"
   inkscape:window-height="907"
   inkscape:window-x="0"
   inkscape:window-y="39"
   inkscape:window-maximized="0"
   inkscape:current-layer="Layer_1" />























<g
   id="g20"
   transform="matrix(0.12890625,0,0,0.12890625,21,21)"><rect
     x="209.54601"
     y="189.067"
     style="fill:#797882"
     width="97.077003"
     height="317.45099"
     id="rect1" /><rect
     x="255.569"
     y="189.067"
     style="fill:#2d2e30"
     width="51.064999"
     height="317.45099"
     id="rect2" /><path
     style="fill:#e61f00"
     d="M 451.604,512 H 65.699 c -9.082,0 -16.444,-7.363 -16.444,-16.444 0,-9.082 7.363,-16.444 16.444,-16.444 h 385.905 c 9.082,0 16.444,7.363 16.444,16.444 0,9.081 -7.362,16.444 -16.444,16.444 z"
     id="path2" /><rect
     x="102.829"
     y="239.798"
     style="fill:#797882"
     width="32.889999"
     height="107.994"
     id="rect3" /><rect
     x="118.622"
     y="239.798"
     style="fill:#2d2e30"
     width="17.094999"
     height="107.994"
     id="rect4" /><rect
     x="380.19901"
     y="237.05499"
     style="fill:#797882"
     width="32.889999"
     height="107.994"
     id="rect5" /><rect
     x="395.45801"
     y="237.05499"
     style="fill:#2d2e30"
     width="17.628"
     height="107.994"
     id="rect6" /><path
     style="fill:#9d2217"
     d="m 311.732,49.091 c 0.583,0.97 0.6,2.178 0.042,3.162 -0.558,0.984 -1.6,1.594 -2.732,1.594 H 254.985 V 17.37 h 54.057 c 1.132,0 2.175,0.609 2.732,1.594 0.557,0.985 0.541,2.192 -0.042,3.162 l -8.111,13.483 z"
     id="path6" /><circle
     style="fill:#c6c5ca"
     cx="120.732"
     cy="219.35201"
     r="33.817001"
     id="circle6" /><circle
     style="fill:#797882"
     cx="391.271"
     cy="219.35201"
     r="33.817001"
     id="circle7" /><polygon
     style="fill:#e61f00"
     points="255.999,61.286 19.276,219.354 492.724,219.354 "
     id="polygon7" /><g
     id="g8">
	<path
   style="fill:#9d2217"
   d="m 86.912,219.354 c 0,18.677 -15.141,33.817 -33.817,33.817 -18.676,0 -33.817,-15.141 -33.817,-33.817 z"
   id="path7" />
	<circle
   style="fill:#9d2217"
   cx="188.367"
   cy="219.35201"
   r="33.817001"
   id="circle8" />
</g><circle
     style="fill:#c6c5ca"
     cx="256.00201"
     cy="219.35201"
     r="33.817001"
     id="circle9" /><g
     id="g10">
	<circle
   style="fill:#9d2217"
   cx="323.63599"
   cy="219.35201"
   r="33.817001"
   id="circle10" />
	<path
   style="fill:#9d2217"
   d="m 492.724,219.354 c 0,18.677 -15.141,33.817 -33.817,33.817 -18.677,0 -33.817,-15.141 -33.817,-33.817 z"
   id="path10" />
</g><polygon
     points="222.182,219.354 255.999,61.286 289.818,219.354 "
     id="polygon10" /><polygon
     style="fill:#e61f00"
     points="222.182,219.354 154.547,219.354 255.999,61.286 "
     id="polygon11" /><g
     id="g13">
	<polygon
   style="fill:#efefef"
   points="86.912,219.354 255.999,61.286 154.547,219.354 "
   id="polygon12" />
	<polygon
   style="fill:#efefef"
   points="289.818,219.354 255.999,61.286 222.182,219.354 "
   id="polygon13" />
</g><polygon
     style="fill:#e61f00"
     points="289.818,219.354 357.453,219.354 255.999,61.286 "
     id="polygon14" /><polygon
     style="fill:#c6c5ca"
     points="425.088,219.354 255.999,61.286 357.453,219.354 "
     id="polygon15" /><path
     style="fill:#2d2e30"
     d="m 254.987,91.481 c -9.593,0 -17.37,-7.776 -17.37,-17.37 V 17.37 c 0,-9.593 7.776,-17.37 17.37,-17.37 9.594,0 17.37,7.776 17.37,17.37 v 56.742 c -0.001,9.593 -7.777,17.369 -17.37,17.369 z"
     id="path15" /><path
     style="fill:#e61f00"
     d="m 206.908,94.066 c 10.592,15.841 28.638,26.277 49.125,26.277 20.474,0 38.511,-10.422 49.106,-26.247 L 256.001,61.285 Z"
     id="path16" /><g
     id="g18">
	<path
   style="fill:#9d2217"
   d="m 255.999,61.286 v 59.057 c 0.011,0 0.021,10e-4 0.032,10e-4 20.474,0 38.511,-10.422 49.106,-26.247 z"
   id="path17" />
	<path
   style="fill:#9d2217"
   d="M 451.604,479.11 H 255.549 V 512 h 196.055 c 9.082,0 16.444,-7.363 16.444,-16.444 0,-9.083 -7.362,-16.446 -16.444,-16.446 z"
   id="path18" />
</g><path
     style="fill:#f7dc4d"
     d="m 215.608,358.755 c 1.325,-1.203 2.021,-2.947 1.891,-4.732 -0.44,-6.066 -1.549,-20.434 -2.735,-28.729 -0.721,-5.041 -3.497,-12.445 -8.062,-16.151 -0.113,-0.092 -0.234,-0.197 -0.35,-0.292 l -0.476,-16.259 c -0.024,-0.843 -0.572,-1.583 -1.37,-1.852 -0.8,-0.27 -1.683,-0.014 -2.213,0.641 l -10.008,12.351 c -6.12,0.076 -13.654,2.664 -20.154,11.975 -29.346,42.032 -76.555,11.475 -97.113,34.858 -0.107,0.122 -0.224,0.305 -0.346,0.518 -6.233,-2.042 -12.2,-3.251 -19.848,-0.362 -9.257,3.473 -11.09,7.413 -28.6,30.821 -0.645,0.863 -0.904,1.955 -0.715,3.016 0.189,1.061 0.807,1.999 1.71,2.587 l 14.894,9.674 c 0.906,0.589 2.017,0.774 3.065,0.512 1.048,-0.262 1.94,-0.948 2.464,-1.894 14.576,-26.294 13.425,-24.676 15.144,-25.827 1.408,-0.948 2.936,-1.314 6.274,-0.713 -1.927,7.384 -9.195,57.206 -11.405,72.503 -0.162,1.118 0.171,2.252 0.911,3.106 0.74,0.854 1.815,1.35 2.944,1.35 h 7.232 c 1.406,0 2.703,-0.757 3.393,-1.982 L 94.18,404.757 c 2.177,-3.862 6.265,-6.25 10.698,-6.25 h 40.961 c 4.439,0 8.532,2.396 10.706,6.265 l 21.966,39.098 c 0.69,1.227 1.988,1.987 3.396,1.987 h 5.234 c 1.193,0 2.32,-0.546 3.059,-1.484 0.739,-0.936 1.007,-2.16 0.73,-3.321 -2.558,-10.698 -8.804,-36.74 -12.623,-51.977 -2.137,-8.52 -0.977,-17.53 3.218,-25.247 1.413,-2.599 2.866,-5.272 4.167,-7.665 1.026,-1.888 2.9,-3.164 5.032,-3.43 2.132,-0.264 4.261,0.515 5.718,2.095 l 6.79,7.362 c 2.166,2.349 5.821,2.511 8.186,0.363 z"
     id="path19" /><path
     style="fill:#ea971e"
     d="m 489.584,358.755 c 1.325,-1.203 2.021,-2.947 1.891,-4.732 -0.44,-6.066 -1.549,-20.434 -2.735,-28.729 -0.721,-5.041 -3.497,-12.445 -8.062,-16.151 -0.113,-0.092 -0.234,-0.197 -0.35,-0.292 l -0.476,-16.259 c -0.024,-0.843 -0.572,-1.583 -1.37,-1.852 -0.8,-0.27 -1.683,-0.014 -2.213,0.641 l -10.008,12.351 c -6.12,0.076 -13.654,2.664 -20.154,11.975 -29.346,42.032 -76.555,11.475 -97.113,34.858 -0.107,0.122 -0.224,0.305 -0.346,0.518 -6.233,-2.042 -12.2,-3.251 -19.848,-0.362 -9.257,3.473 -11.09,7.413 -28.6,30.821 -0.645,0.863 -0.904,1.955 -0.715,3.016 0.189,1.061 0.807,1.999 1.71,2.587 l 14.894,9.674 c 0.906,0.589 2.017,0.774 3.065,0.512 1.048,-0.262 1.94,-0.948 2.464,-1.894 14.576,-26.294 13.425,-24.676 15.144,-25.827 1.408,-0.948 2.936,-1.314 6.274,-0.713 -1.927,7.384 -9.195,57.206 -11.405,72.503 -0.162,1.118 0.171,2.252 0.911,3.106 0.74,0.854 1.815,1.35 2.944,1.35 h 7.232 c 1.406,0 2.703,-0.757 3.393,-1.982 l 22.045,-39.117 c 2.177,-3.862 6.265,-6.25 10.698,-6.25 h 40.961 c 4.439,0 8.532,2.396 10.706,6.265 l 21.966,39.098 c 0.69,1.227 1.988,1.987 3.396,1.987 h 5.234 c 1.193,0 2.32,-0.546 3.059,-1.484 0.739,-0.936 1.007,-2.16 0.73,-3.321 -2.558,-10.698 -8.804,-36.74 -12.623,-51.977 -2.137,-8.52 -0.977,-17.53 3.219,-25.247 1.413,-2.599 2.866,-5.272 4.167,-7.665 1.026,-1.888 2.9,-3.164 5.032,-3.43 2.132,-0.264 4.261,0.515 5.718,2.095 l 6.79,7.362 c 2.166,2.349 5.821,2.511 8.186,0.363 z"
     id="path20" /></g>
</svg>
